<svg fill="none" height="297" viewBox="0 0 500 297" width="500" xmlns="http://www.w3.org/2000/svg" xmlns:xlink="http://www.w3.org/1999/xlink"><clipPath id="a"><path d="m0 0h500v296.438h-500z"/></clipPath><g clip-path="url(#a)"><g clip-rule="evenodd" fill-rule="evenodd"><path d="m37.8465 139.71h310.6505c11.058 0 22.429-1.969 32.898-5.516 5.146-1.746 10.919-4.173 15.995-7.227-6.685-8.726-10.097-19.745-11.1-30.6058-1.366-14.7747 1.616-34.0037 11.613-45.5667l4.978-5.7567 5.931 4.769c14.932 11.9958 27.491 28.7605 29.705 47.8714 17.98-5.2887 39.091-4.0379 54.938 5.1088l6.503 3.752-3.421 6.68c-13.404 26.158-41.428 34.263-68.823 32.828-40.995 102.106-130.246 150.445-238.461 150.445-55.91 0-107.2023-20.9-136.4122-70.502l-.4784-.808-4.2553-8.66c-9.8733-21.834-13.1534-45.753-10.9294-69.653z" fill="#364548"/><path d="m430.613 109.214c3.174-24.6747-15.291-44.0548-26.742-53.2572-13.197 15.2573-15.247 55.2432 5.456 72.0782-11.554 10.263-35.9 19.565-60.83 19.565h-303.4567c-2.4228 26.023 2.1452 49.987 12.5797 70.498l3.4519 6.316c2.1857 3.707 4.5742 7.291 7.1545 10.735 12.4762.801 23.9792 1.076 34.5026.844h.004c20.681-.455 37.555-2.899 50.344-7.33.904-.281 1.882-.2 2.727.227.846.427 1.492 1.166 1.802 2.061.31.894.26 1.874-.14 2.733-.399.858-1.117 1.528-2.001 1.866-1.702.593-3.475 1.143-5.306 1.667h-.006c-10.07 2.877-20.869 4.811-34.801 5.67.829.014-.861.124-.865.124-.474.031-1.071.1-1.547.124-5.483.309-11.402.373-17.4523.373-6.6181 0-13.1347-.124-20.4217-.497l-.1863.124c25.2833 28.419 64.8183 45.464 114.3753 45.464 104.879 0 193.838-46.493 233.232-150.868 27.947 2.867 54.806-4.26 67.024-28.111-19.461-11.2295-44.488-7.649-58.898-.406" fill="#536469"/><path d="m430.613 109.214c3.174-24.6747-15.291-44.0548-26.742-53.2572-13.197 15.2573-15.247 55.2432 5.457 72.0782-11.555 10.263-35.901 19.565-60.831 19.565h-285.4867c-1.2383 39.853 13.5509 70.105 39.7167 88.393h.006c20.681-.455 37.555-2.899 50.344-7.33.904-.281 1.882-.2 2.728.227.845.427 1.491 1.166 1.801 2.061.31.894.26 1.874-.14 2.733-.399.858-1.117 1.528-2.001 1.866-1.702.593-3.475 1.143-5.305 1.667h-.007c-10.07 2.876-21.796 5.059-35.728 5.918-.004 0-.338-.321-.342-.321 35.693 18.31 87.448 18.244 146.785-4.549 66.533-25.561 128.446-74.257 171.644-129.954-.651.294-1.284.595-1.899.903" fill="#49565a"/><path d="m45.6097 179.218c1.8844 13.94 5.9638 26.992 12.0103 38.88l3.452 6.316c2.1853 3.707 4.5737 7.291 7.1544 10.735 12.4783.801 23.9813 1.076 34.5066.845 20.681-.456 37.555-2.899 50.344-7.331.904-.281 1.882-.2 2.727.227.846.427 1.492 1.166 1.802 2.061.31.894.26 1.875-.14 2.733-.399.858-1.117 1.528-2.001 1.866-1.702.593-3.475 1.143-5.306 1.667h-.006c-10.07 2.877-21.734 4.935-35.666 5.796-.479.029-1.313.036-1.796.062-5.479.307-11.337.495-17.3897.495-6.616 0-13.3832-.126-20.666-.497 25.2838 28.419 65.0627 45.526 114.6197 45.526 89.787 0 167.904-34.081 213.243-109.381z" fill="#373f42"/><path d="m65.7415 179.218c5.3673 24.476 18.266 43.691 36.9915 56.776 20.681-.456 37.555-2.899 50.344-7.331.904-.281 1.882-.2 2.727.227.846.427 1.492 1.166 1.802 2.061.31.894.26 1.875-.14 2.733-.399.858-1.117 1.528-2.001 1.866-1.702.593-3.475 1.143-5.306 1.667h-.006c-10.07 2.877-21.981 4.935-35.915 5.796 35.692 18.306 87.297 18.043 146.63-4.748 35.894-13.791 70.44-34.32 101.433-59.047z" fill="#404a4e"/><path d="m405.386 174.174c-19.453-9.781-51.24-17.471-67.607 14.651-9.558 18.758-16.586 46.831-17.034 69.052 34.403-18.754 63.413-46.385 84.641-83.703z" fill="#f0f0f0"/></g><ellipse cx="215.13" cy="229.401" fill="#f0f0f0" rx="60.5386" ry="19.9321" transform="matrix(.97236992 .23344536 -.23344536 .97236992 59.496659 -43.882733)"/><path clip-rule="evenodd" d="m172.047 206.771c1.5-.02 2.989.258 4.38.818 1.391.561 2.657 1.392 3.725 2.445 1.067 1.054 1.915 2.309 2.493 3.692.579 1.384.876 2.869.876 4.369s-.298 2.985-.877 4.368c-.579 1.384-1.427 2.639-2.495 3.692s-2.334 1.883-3.726 2.443c-1.391.56-2.88.837-4.38.817-2.976-.041-5.817-1.252-7.907-3.371-2.09-2.12-3.261-4.977-3.261-7.953.001-2.977 1.174-5.833 3.264-7.952 2.091-2.118 4.932-3.328 7.908-3.368z" fill="#dfe3e3" fill-rule="evenodd"/><path clip-rule="evenodd" d="m172.047 209.983c1.036 0 2.023.195 2.935.549-.629.365-1.12.927-1.398 1.599-.277.672-.326 1.416-.138 2.118.188.703.603 1.323 1.179 1.767.576.443 1.282.685 2.009.687 1.253 0 2.34-.694 2.903-1.721.667 1.606.8 3.385.378 5.072-.421 1.688-1.374 3.195-2.718 4.299-1.344 1.105-3.007 1.748-4.745 1.834-1.737.086-3.456-.388-4.903-1.354-1.446-.966-2.544-2.371-3.131-4.008-.587-1.638-.631-3.42-.127-5.085s1.53-3.123 2.927-4.16 3.09-1.597 4.829-1.597zm-200.2489-26.673h526.6459c-11.466-2.908-36.279-6.838-32.188-21.867-20.852 24.128-71.136 16.928-83.827 5.031-14.131 20.497-96.402 12.705-102.14-3.263-17.717 20.792-72.615 20.792-90.332 0-5.742 15.968-88.011 23.76-102.1434 3.261-12.6896 11.899-62.9713 19.099-83.82373-5.027 4.09179 15.027-20.72197 18.957-32.19177 21.867" fill="#364548" fill-rule="evenodd"/><path clip-rule="evenodd" d="m202.141 288.354c-28.038-13.304-43.425-31.392-51.988-51.135-10.416 2.972-22.933 4.873-37.48 5.689-5.479.306-11.244.464-17.2909.464-6.9743 0-14.3234-.208-22.039-.615 25.7124 25.698 57.3429 45.481 115.9119 45.842 4.324 0 8.614-.083 12.886-.245" fill="#f0f0f0" fill-rule="evenodd"/><path clip-rule="evenodd" d="m160.567 255.438c-3.878-5.266-7.641-11.884-10.407-18.223-10.416 2.976-22.938 4.877-37.487 5.695 9.993 5.423 24.283 10.449 47.896 12.528" fill="#dfe3e3" fill-rule="evenodd"/><path d="m300.678 139.949-69.609-139.737-70.127 139.737zm-77.823-28.103h-8.107v-8.042h8.107zm16.126-32.4266h8.021v8.1715h-8.085zm0 12.1492h8.021v8.1715h-8.085zm0 12.1494h8.021v8.171h-8.085zm-12.149-36.4694h8.021v8.1931h-8.086zm0 12.1708h8.021v8.1715h-8.086zm0 12.1492h8.021v8.1715h-8.086zm0 12.1494h8.021v8.171h-8.086zm-3.977-3.9779h-8.107v-8.085h8.107zm0-20.2342v8.085h-8.085v-8.085z" fill="#000"/></g></svg>