<svg fill="none" height="1398" viewBox="0 0 2358 1398" width="2358" xmlns="http://www.w3.org/2000/svg" xmlns:xlink="http://www.w3.org/1999/xlink"><clipPath id="a"><path d="m0 0h2358v1398h-2358z"/></clipPath><g clip-path="url(#a)"><g clip-rule="evenodd" fill-rule="evenodd"><path d="m178.484 658.873h1465.026c52.15 0 105.78-9.287 155.15-26.016 24.27-8.232 51.49-19.677 75.43-34.082-31.52-41.152-47.62-93.115-52.34-144.336-6.45-69.677 7.61-160.361 54.76-214.892l23.48-27.149 27.97 22.491c70.42 56.572 129.65 135.634 140.08 225.761 84.8-24.941 184.36-19.043 259.1 24.092l30.66 17.696-16.13 31.503c-63.21 123.36-195.37 161.582-324.57 154.815-193.33 481.534-614.24 709.504-1124.582 709.504-263.672 0-505.567-98.57-643.321-332.49l-2.256-3.81-20.068-40.84c-46.562-102.97-62.031-215.772-51.543-328.487z" fill="#364548"/><path d="m2030.77 515.055c14.97-116.367-72.11-207.764-126.11-251.162-62.24 71.953-71.91 260.527 25.73 339.921-54.49 48.399-169.31 92.266-286.88 92.266h-1431.1c-11.426 122.725 10.117 235.742 59.326 332.47l16.28 29.79c10.307 17.48 21.571 34.38 33.74 50.62 58.838 3.78 113.086 5.08 162.715 3.99h.019c97.529-2.15 177.11-13.68 237.422-34.58 4.264-1.32 8.876-.94 12.862 1.08 3.986 2.01 7.032 5.49 8.495 9.71 1.462 4.22 1.226 8.84-.658 12.89s-5.269 7.21-9.439 8.81c-8.028 2.79-16.387 5.39-25.02 7.86h-.029c-47.49 13.56-98.418 22.68-164.121 26.74 3.906.06-4.063.58-4.082.58-2.236.15-5.049.47-7.295.59-25.859 1.45-53.77 1.75-82.305 1.75-31.211 0-61.943-.58-96.308-2.34l-.879.59c119.238 134.02 305.683 214.4 539.394 214.4 494.613 0 914.143-219.26 1099.923-711.493 131.8 13.526 258.47-20.088 316.08-132.568-91.77-52.959-209.8-36.074-277.76-1.914" fill="#536469"/><path d="m2030.77 515.055c14.97-116.367-72.11-207.764-126.11-251.162-62.24 71.953-71.91 260.527 25.73 339.921-54.49 48.399-169.31 92.266-286.88 92.266h-1346.354c-5.84 187.949 63.907 330.62 187.305 416.87h.029c97.53-2.15 177.11-13.68 237.422-34.58 4.264-1.32 8.876-.94 12.862 1.08 3.986 2.01 7.032 5.49 8.495 9.71 1.462 4.22 1.226 8.84-.658 12.89s-5.269 7.21-9.439 8.81c-8.027 2.79-16.387 5.39-25.02 7.86h-.029c-47.49 13.56-102.793 23.85-168.496 27.91-.02 0-1.592-1.52-1.611-1.52 168.33 86.35 412.402 86.04 692.234-21.45 313.77-120.55 605.75-350.197 809.47-612.863-3.06 1.387-6.05 2.803-8.95 4.258" fill="#49565a"/><path d="m215.096 845.191c8.886 65.743 28.125 127.295 56.64 183.359l16.28 29.79c10.306 17.48 21.57 34.38 33.74 50.62 58.848 3.78 113.096 5.08 162.734 3.99 97.53-2.15 177.11-13.68 237.422-34.57 4.264-1.33 8.876-.95 12.862 1.07 3.986 2.01 7.032 5.49 8.495 9.71 1.462 4.22 1.226 8.84-.658 12.89s-5.269 7.21-9.439 8.81c-8.027 2.79-16.387 5.39-25.02 7.86h-.029c-47.49 13.56-102.5 23.27-168.203 27.33-2.256.14-6.191.17-8.467.29-25.84 1.45-53.467 2.34-82.012 2.34-31.201 0-63.115-.6-97.461-2.35 119.239 134.03 306.836 214.7 540.547 214.7 423.433 0 791.833-160.72 1005.653-515.839z" fill="#373f42"/><path d="m310.037 845.191c25.313 115.43 86.143 206.049 174.453 267.759 97.53-2.15 177.11-13.68 237.422-34.57 4.264-1.33 8.876-.95 12.862 1.07 3.986 2.01 7.032 5.49 8.495 9.71 1.462 4.22 1.226 8.84-.658 12.89s-5.269 7.21-9.439 8.81c-8.027 2.79-16.387 5.39-25.02 7.86h-.029c-47.49 13.56-103.662 23.27-169.375 27.33 168.32 86.33 411.689 85.09 691.502-22.39 169.28-65.04 332.2-161.857 478.36-278.469z" fill="#404a4e"/><path d="m1911.8 821.404c-91.74-46.125-241.65-82.394-318.83 69.096-45.08 88.463-78.23 220.85-80.33 325.65 162.24-88.45 299.05-218.755 399.16-394.746z" fill="#f0f0f0"/></g><ellipse cx="1014.56" cy="1081.86" fill="#f0f0f0" rx="285.5" ry="94" transform="matrix(.97236992 .23344536 -.23344536 .97236992 280.587575 -206.95245)"/><path clip-rule="evenodd" d="m811.375 975.133c7.073-.095 14.093 1.217 20.655 3.859 6.561 2.641 12.532 6.56 17.567 11.529 5.034 4.968 9.031 10.889 11.758 17.409 2.728 6.53 4.132 13.53 4.131 20.61-.002 7.07-1.408 14.07-4.138 20.6-2.73 6.52-6.729 12.44-11.765 17.41-5.037 4.96-11.009 8.88-17.571 11.52-6.563 2.64-13.584 3.95-20.656 3.85-14.036-.19-27.432-5.9-37.288-15.9-9.857-9.99-15.382-23.47-15.379-37.5.002-14.04 5.532-27.51 15.392-37.503 9.861-9.991 23.258-15.697 37.294-15.884z" fill="#dfe3e3" fill-rule="evenodd"/><path clip-rule="evenodd" d="m811.375 990.279c4.883 0 9.541.918 13.838 2.588-2.965 1.722-5.281 4.371-6.589 7.543-1.309 3.17-1.537 6.68-.651 9.99.887 3.31 2.84 6.24 5.557 8.33s6.047 3.23 9.476 3.24c5.908 0 11.035-3.27 13.691-8.12 3.145 7.58 3.77 15.97 1.783 23.92-1.988 7.96-6.482 15.07-12.82 20.28-6.337 5.21-14.182 8.24-22.375 8.65-8.193.4-16.299-1.83-23.122-6.39-6.823-4.55-12.001-11.18-14.768-18.9s-2.977-16.13-.599-23.98 7.217-14.73 13.804-19.619 14.572-7.529 22.775-7.532zm-944.375-125.791h2483.66c-54.07-13.711-171.09-32.246-151.79-103.125-98.34 113.789-335.48 79.834-395.34 23.731-66.64 96.66-454.63 59.912-481.69-15.391-83.55 98.057-342.447 98.057-426.002 0-27.08 75.303-415.059 112.051-481.709 15.381-59.844 56.113-296.973 90.068-395.3126-23.711 19.2969 70.869-97.7246 89.404-151.8164 103.125" fill="#364548" fill-rule="evenodd"/><path clip-rule="evenodd" d="m953.299 1359.88c-132.227-62.75-204.795-148.05-245.176-241.15-49.121 14.01-108.154 22.98-176.758 26.82-25.84 1.45-53.027 2.19-81.543 2.19-32.89 0-67.549-.98-103.935-2.9 121.259 121.19 270.429 214.49 546.64 216.19 20.391 0 40.625-.39 60.772-1.15" fill="#f0f0f0" fill-rule="evenodd"/><path clip-rule="evenodd" d="m757.234 1204.64c-18.291-24.83-36.035-56.04-49.082-85.93-49.121 14.03-108.173 23-176.787 26.85 47.129 25.58 114.522 49.28 225.879 59.08" fill="#dfe3e3" fill-rule="evenodd"/><path d="m1418 660-328.28-659.000045-330.72 659.000045zm-367.02-132.534h-38.23v-37.925h38.23zm76.06-152.924h37.82v38.537h-38.13zm0 57.296h37.82v38.536h-38.13zm0 57.295h37.82v38.537h-38.13zm-57.3-171.988h37.82v38.638h-38.12zm0 57.397h37.82v38.537h-38.12zm0 57.296h37.82v38.536h-38.12zm0 57.295h37.82v38.537h-38.12zm-18.76-18.759h-38.23v-38.129h38.23zm0-95.424v38.129h-38.13v-38.129z" fill="#000"/></g></svg>